<?xml version="1.0" encoding="UTF-8"?>
<svg width="512" height="512" viewBox="0 0 512 512" fill="none" xmlns="http://www.w3.org/2000/svg">
  <rect width="512" height="512" rx="100" fill="#1976D2" />
  <path d="M256 112C178.3 112 115 175.3 115 253C115 330.7 178.3 394 256 394C333.7 394 397 330.7 397 253C397 175.3 333.7 112 256 112ZM256 358C198.1 358 151 310.9 151 253C151 195.1 198.1 148 256 148C313.9 148 361 195.1 361 253C361 310.9 313.9 358 256 358Z" fill="white"/>
  <path d="M292 181H220V217H184V289H220V325H292V289H328V217H292V181ZM292 253H256V289H220V253H184V217H220V181H256V217H292V253H328V217H292V253Z" fill="white"/>
</svg>
